<?xml version="1.0" encoding="utf-8"?>
<svg version="1.1" id="Layer_1" xmlns="http://www.w3.org/2000/svg" xmlns:xlink="http://www.w3.org/1999/xlink" x="0px" y="0px"
	 viewBox="-5 5 288 259" style="enable-background:new -5 5 288 259;" xml:space="preserve">
<style type="text/css">
	.st0{fill:#40AA54;stroke:#20552A;stroke-width:5;stroke-linejoin:round;}
	.st1{fill:#20552A;}
</style>
<g>
	<path class="st0" d="M136.3,39.5c-44.7,0-80.9,36.2-80.9,80.9c0,34.7,21.8,64.3,52.5,75.8l18.6-49.7c-10.5-4-18-14.1-18-26
		c0-15.4,12.5-27.8,27.8-27.8c15.4,0,27.8,12.5,27.8,27.8c0,11.9-7.5,22.1-18,26l18.6,49.7c30.7-11.5,52.5-41.1,52.5-75.8
		C217.2,75.7,181,39.5,136.3,39.5z"/>
	<path class="st1" d="M215.5,176.2v15h-3.1v-15h-5.1v-2.4h13.3v2.4H215.5z"/>
	<path class="st1" d="M240.1,182.6c0-0.1-0.1-0.5-0.2-1.1c-0.1-0.5-0.1-0.9-0.2-1.2c-0.1,0.4-0.2,0.8-0.3,1.2
		c-0.1,0.4-0.3,0.8-0.5,1.2l-5,9.2l-5-9.4c-0.2-0.4-0.4-0.8-0.5-1.1c-0.2-0.4-0.3-0.7-0.4-1.1c0,0.4,0,0.7-0.1,1.1
		c-0.1,0.4-0.1,0.8-0.3,1.3l-2.1,8.5h-2.9l4.6-18.1l5.7,11c0.1,0.2,0.2,0.5,0.4,0.9c0.2,0.4,0.4,0.9,0.7,1.5
		c0.2-0.5,0.5-1.1,0.9-1.9c0.1-0.2,0.2-0.4,0.2-0.5l5.6-10.9l4.7,18.1h-2.9L240.1,182.6z"/>
	<path d="M24.2,236c0,3.3-2.7,6.1-6.1,6.1c-3.4,0-6.1-2.8-6.1-6.1v-8.8c0-3.3,2.7-6.1,6.1-6.1c3.4,0,6.1,2.8,6.1,6.1V236z M30.3,236
		v-8.8c0-6.8-4.8-11.5-12.1-11.5S6,220.4,6,227.3v8.8c0,6.9,4.8,11.5,12.1,11.5S30.3,242.9,30.3,236z"/>
	<path d="M51.8,235.3c0,3.3-2.6,6.1-6.1,6.1c-3.4,0-6.1-2.8-6.1-6.1v-7.4c0-3.3,2.7-6.1,6.1-6.1c3.4,0,6.1,2.8,6.1,6.1V235.3z
		 M57.9,235.3v-7.4c0-6.8-4.9-11.5-11.7-11.5c-4,0-5.9,2.2-6.7,2.2c-0.3,0-0.5-0.3-0.5-0.7v-0.8c0-0.5-0.2-0.7-0.7-0.7h-4
		c-0.5,0-0.7,0.2-0.7,0.7v44.2c0,0.5,0.2,0.7,0.7,0.7H39c0.5,0,0.7-0.2,0.7-0.7v-16c0-0.5,0.2-0.7,0.5-0.7c0.6,0,2.6,2.2,6.5,2.2
		C53.1,246.8,57.9,241.9,57.9,235.3z"/>
	<path d="M77.9,227.9H67.1c-0.6,0-0.7-0.3-0.7-1c0-3,2.8-5.7,6.1-5.7c3.2,0,6.1,2.7,6.1,5.6C78.5,227.6,78.5,227.9,77.9,227.9z
		 M84.6,232v-4.7c0-6.1-5.4-11.5-12.1-11.5c-6.7,0-12.1,5.3-12.1,11.5v8.8c0,6.9,4.8,11.5,12.1,11.5c3.6,0,6.4-0.9,8.4-2.8
		c2-1.9,2.8-3.6,2.8-4.1c0-0.2-0.1-0.3-0.4-0.5l-4.2-2.2c-0.1-0.1-0.3-0.1-0.4-0.1c-0.4,0-1,1.1-2.5,2.8c-0.7,0.9-2.1,1.5-3.7,1.5
		c-3.4,0-6.1-2.8-6.1-6.1v-2.7c0-0.5,0.2-0.7,0.7-0.7h16.9C84.4,232.6,84.6,232.4,84.6,232z"/>
	<path d="M111.1,246.8h-4.7c-0.5,0-0.7-0.2-0.7-0.7v-18.2c0-3.3-2.6-6.1-6.1-6.1c-3.4,0-6.1,2.8-6.1,6.1v18.2c0,0.5-0.2,0.7-0.7,0.7
		h-4.7c-0.5,0-0.7-0.2-0.7-0.7v-29c0-0.5,0.2-0.7,0.7-0.7h4c0.5,0,0.7,0.2,0.7,0.7v0.8c0,0.5,0.2,0.7,0.5,0.7c0.9,0,2.8-2.2,6.7-2.2
		c6.8,0,11.7,4.7,11.7,11.5v18.2C111.8,246.6,111.6,246.8,111.1,246.8z"/>
	<path d="M128.6,224.4c0,2.8,2.1,4,6.7,5.1c7.8,1.7,12.1,2.7,12.1,8.4c0,5.7-4.2,9.7-10.7,9.7h-2.1c-6.3,0-10.4-3.8-10.4-5.9
		c0-0.2,0.1-0.3,0.5-0.5l2.6-1.3c0.1-0.1,0.3-0.1,0.3-0.1c0.2,0,0.3,0.1,0.5,0.3c1.8,2,3.1,3.8,6.4,3.8h2.1c3.8,0,6.2-2.2,6.2-4.9
		c0-2.5-2.1-4-6.6-4.9c-7.8-1.6-12.1-2.4-12.1-8.4c0-5.5,4.1-9.4,10.4-9.4h2.1c6.1,0,10.3,3.7,10.3,5.7c0,0.2-0.2,0.3-0.5,0.5
		l-2.6,1.3c-0.1,0.1-0.2,0.1-0.3,0.1c-0.2,0-0.3-0.1-0.5-0.3c-1.9-2-3.4-3.6-6.5-3.6h-2.1C130.7,219.9,128.6,221.6,128.6,224.4z"/>
	<path d="M169.2,236.4c0,3.9-3.2,7.2-7.2,7.2c-4,0-7.1-3.3-7.1-7.2v-9.1c0-4,3-7.1,7.1-7.1c4,0,7.2,3.3,7.2,7.1V236.4z M173.8,236.4
		v-9.1c0-6.5-4.7-11-11.8-11c-7.1,0-11.7,4.3-11.7,11v9.1c0,6.7,4.5,11.1,11.7,11.1C169.1,247.5,173.8,243,173.8,236.4z"/>
	<path d="M200.1,246.8h-2.5c-0.5,0-0.7-0.2-0.7-0.7v-2.9c0-0.5-0.3-0.7-0.5-0.7c-0.6,0-1.3,1.1-2.5,2.3c-1.3,1.3-3.4,2-5.6,2
		c-6.1,0-11-4.5-11-11.1v-18.1c0-0.5,0.2-0.7,0.7-0.7h3.2c0.5,0,0.7,0.2,0.7,0.7v18.1c0,3.9,3.2,7.2,7.1,7.2c4.2,0,7.3-3.2,7.3-7.2
		v-18.1c0-0.5,0.2-0.7,0.7-0.7h3.2c0.5,0,0.7,0.2,0.7,0.7v28.4C200.8,246.6,200.6,246.8,200.1,246.8z"/>
	<path d="M221.2,221.8c-0.5,0-1.4-0.2-2.6-0.2c-4.1,0-7.1,3.1-7.1,7.1v17.5c0,0.5-0.2,0.7-0.7,0.7h-3.2c-0.5,0-0.7-0.2-0.7-0.7
		v-28.4c0-0.5,0.2-0.7,0.7-0.7h2.5c0.5,0,0.7,0.2,0.7,0.7v3.4c0,0.5,0.3,0.7,0.5,0.7c0.7,0,1.8-1.7,4.2-3.6c0.7-0.6,2.2-1.1,3.1-1.1
		h2.5c0.5,0,0.7,0.2,0.7,0.7v3.4C221.8,221.7,221.7,221.8,221.2,221.8z"/>
	<path d="M243.8,241.5c0,2.2-4.1,5.9-10.4,5.9c-7.1,0-11.7-4.4-11.7-11.1v-9.1c0-6.7,4.5-11,11.7-11c6.3,0,10.5,3.6,10.5,5.8
		c0,0.2-0.2,0.4-0.5,0.5l-2.8,1.4c-0.1,0.1-0.2,0.1-0.3,0.1c-0.2,0-0.3-0.1-0.5-0.3c-2-1.9-3.4-3.7-6.4-3.7c-4.1,0-7.1,3.2-7.1,7.1
		v9.1c0,3.9,3.1,7.2,7.1,7.2c1.6,0,3.2-0.7,4.4-1.8c1.4-1.3,2-2.3,2.4-2.3c0.1,0,0.2,0,0.3,0.1l2.8,1.4
		C243.7,241.1,243.8,241.3,243.8,241.5z"/>
	<path d="M265.1,228.3c0,0.5-0.2,0.7-0.7,0.7h-13c-0.5,0-0.7-0.2-0.7-0.7v-0.9c0-4,3-7.1,7.1-7.1c4,0,7.2,3.3,7.2,7.1V228.3z
		 M269.7,231.4v-4.1c0-5.8-5.3-11-11.8-11c-3.4,0-6.3,1.2-8.5,3.6c-2,2.2-3.2,4.9-3.2,7.4v9.1c0,6.7,4.5,11.1,11.7,11.1
		c6.3,0,10.5-3.8,10.5-5.9c0-0.3-0.1-0.4-0.4-0.5l-2.8-1.4c-0.1-0.1-0.3-0.1-0.3-0.1c-0.4,0-1,0.9-2.4,2.3c-1.2,1.1-2.8,1.8-4.4,1.8
		c-4,0-7.1-3.3-7.1-7.2v-3.6c0-0.5,0.2-0.7,0.7-0.7H269C269.5,232.1,269.7,231.9,269.7,231.4z"/>
</g>
</svg>
